# xmcd
#
# Track frame offsets:
#	182
#	16132
#	39507
#
# Disc length: 742 seconds
#
# Revision: 1
# Processed by: cddbd v1.5.2PL0 Copyright (c) Steve Scherf et al.
# Submitted via: audiograbber 1.83.01
#
DISCID=1702e403
DTITLE=The Chi-Lites - Old Gold 6108
DYEAR=1974
DGENRE=Rock
TTITLE0=Homely Girl
TTITLE1=Have You Seen Her
TTITLE2=Oh Girl
EXTD=
EXTT0=
EXTT1=
EXTT2=
PLAYORDER=
